# xmcd
#
# Track frame offsets:
#	150
#	45595
#	62489
#	114066
#	204950
#	217874
#	243280
#	269991
#	300775
#
# Disc length: 4246 seconds
#
# Revision: 1
# Processed by: cddbd v1.5.2PL0 Copyright (c) Steve Scherf et al.
# Submitted via: audiograbber 1.83.01
#
DISCID=6d109409
DTITLE=Grateful Dead - 73-03-16 Nassau Veterans Memorial Coliseum, Uniondale NY
DYEAR=1900
DGENRE=
TTITLE0=Row Jimmy
TTITLE1=Mexicali Blues
TTITLE2=Bird Song
TTITLE3=Playing In The Band
TTITLE4=Promised Land
TTITLE5=Bertha
TTITLE6=Greatest Story Ever Told
TTITLE7=Loser
TTITLE8=Big River
EXTD=
EXTT0=
EXTT1=
EXTT2=
EXTT3=
EXTT4=
EXTT5=
EXTT6=
EXTT7=
EXTT8=
PLAYORDER=
